<svg id="Layer_1" data-name="Layer 1" xmlns="http://www.w3.org/2000/svg" viewBox="0 0 243.6 73.29"><defs><style>.cls-1{fill:#58595b;}</style></defs><path class="cls-1" d="M286.7,385l-.08-.75.08-.91.09-.91.16-1.08.17-1.08.25-1,.25-1,.33-.92.33-.74.42-.59.41-.41.42-.17.49.5.09.91-.17,1.08-.16.58-.17.75-.25.83-.25.75-.33.75-.25.83-.42.74-.41.83-.42.75-.49.83Zm-21.57-5.31V379l.08-.74.08-.84.25-.82.25-.92.33-1,.42-1,.49-.83.42-.83.5-.58.5-.33.41-.09.5.42-.08.58-.17.75-.33.83-.33.91-.42.91-.5.92-.5,1-.49.92-.5.83-.5.66-.33.5Zm146.32-6.31.41-.67.34-.58.41-.58.33-.5.42-.58.58-.58.66-.74.67-.59.66-.33.5-.08.5.25.25.66v.67l-.34.66-.58.66-.74.59-.83.58-.83.49-.67.34-.58.25-.66.24-.58.25Zm-179.52-1-.83-.08-.83-.08-.83-.17-.83-.08-.83-.17-.92-.16-.83-.17-.83-.17-.91-.16-.83-.17-.83-.16-.91-.17-.83-.17-.83-.16-.83-.17-1-.17-1-.24.34-.83.25-.83.33-.83.25-.83.33-.92.33-.83.25-.83.33-.83.25-.74.33-.83.25-.83.33-.83.25-.83.34-.75.24-.83.34-.75.25-.83.33-.75.25-.82.33-.75.25-.75.33-.75.25-.74.25-.75.33-.66.25-.75.25-.75.33-.66.25-.67.25-.74.24-.67.34-.66.25-.58.25-.67.49.5.58.58,1.08.92.5.33.09.16.66.67.66.58.67.66.58.58.5.67.58.66.41.67.5.66.33.75.33.74.34.83.16.75.17.75.08.75.08.74v1.5l-.08.66v.75l-.08.74-.09.75-.16.75-.08.74-.17.84-.17.83-.16.83-.25.74-.17.83-.25.92-.25.83-.16.83-.25.82-.25.84-.25.83-.25.83Zm134.87-36,.74.08.58.75.17.66.17.75v1.66l-.17.83-.17.83-.24.91-.34.92-.25.74-.24.75-.34.75-.33.83-.33.74-.42.75-.41.75-.41.83-.5.75-.42.74-.5.83-.49.75-.5.83-.58.83-.5.75-.58.83-.5.74-.58.75-.58.83-.5.67-.58.74-.5.75-.58.66-.5.67-.5.58-.49.58-.5.58-.5.58-.5.5-.41.5-.42.5-.41.33-.42.41.42-.83.33-.83.33-.74.33-.83.33-.75.34-.75.33-.75.33-.83.42-.74.33-.83.33-.83.33-.75.33-.75.34-.74.33-.75.33-.83.25-.75.33-.74.33-.75L359,351l.33-.75.33-.74.33-.75.33-.75.33-.74.34-.75.33-.66.41-.75.34-.75.33-.75.33-.74.5-1.08.41-.83.42-.75.41-.83.42-.75.41-.74.5-.67.5-.58h-.08Zm30.37,26.89.34-.83.33-.83.33-.74.33-.75.33-.75.33-.75.34-.83.33-.83.33-.83.33-.74.34-.75.33-.75.33-.74.25-.75.33-.75.33-.74.33-.75.34-.75.33-.75.33-.74.33-.75.42-.75.33-.74.33-.75.33-.75.34-.66.33-.75.33-.75.41-.74.34-.75.33-.66.33-.75.33-.75.42-.74.41-.75.42-.75.41-.66.42-.58.41-.5.58-.42.67.09.5.74.24.75.17.75.08.74-.08.75-.08.83-.25.91-.25.92-.33,1-.25.67-.25.66-.25.75-.33.66-.33.75-.34.66-.41.75-.42.75-.41.66-.42.75-.41.75-.5.66-.41.75-.5.83-.5.74-.58.83-.5.75-.5.75-.58.74-.5.75-.58.75-.5.75-.58.66-.49.66-.5.67-.5.58-.5.58-.5.58-.49.58-.5.5-.42.5-.41.41-.42.42-.41.41ZM228.52,340l.5-.91.5-.83.5-.83.49-.75.5-.74.5-.75.58-.67.5-.58.58-.58.58-.58.67-.5.58-.41.66-.42.67-.33.66-.33.66-.17.75-.25.75-.08.74-.08h.92l.83.08.74.17.67.25.83.49.5.5.33.67.25.74.08.67-.08.66-.17.58-.33.58-.42.58-.49.5-.67.42-.75.5-.74.41-.91.42-1,.33-1,.33-.66.17-.75.16-.74.17-.75.16-.83.17-.83.16-.83.17-.83.08-.83.17-.83.08-.83.17-.83.08-.83.09Zm11.12-10.62-.74.08-.75.08-.66.17-.75.25-.66.25-.75.25-.67.33-.66.41-.66.42-.67.5-.66.49-.67.59-.58.58-.66.58-.58.66-.58.67-.58.66-.58.75-.5.74-.58.75-.5.83-.5.83-.5.83h-.66l-.75.08H222.3l-.75.09h-8.88l-1,.08h-2.9l-1,.08h-1l-1,.09h-1l-.91.08-1,.08-1,.09-.91.08-.92.08-1,.17-.92.08-.83.17-.91.16-.83.17-.91.16-.75.17-.83.25-.74.25-.75.25-.75.25-.66.33-.67.33-.66.33-.58.33-.58.42-.5.41-.5.42-.5.41-.41.5-.33.5-.34.58-.24.58-.25.58-.17.58-.17.67-.08.66v1.5l.08.74.09.75.16.83.25.75.25.66.25.75.33.75.33.83.34.74.33.67.58.33v-1.16l-.33-.75-.42-.83-.33-.83L186,357l-.25-1-.25-.91-.08-.91-.09-.83v-.67l.09-.66.16-.67.17-.58.25-.58.33-.58.33-.5.33-.5.5-.41.42-.5.58-.41.49-.34.59-.41.66-.33.66-.33.67-.34.75-.25.74-.24.75-.25.83-.25.83-.25.83-.17.91-.16.83-.17.92-.17.91-.16,1-.08.92-.17.91-.08,1-.09,1-.08,1-.08,1-.09.92-.08h1l1-.08,1-.08h1l.91-.09h1.91l1-.08h1.82l1-.08h2.66l.83-.09h.83l.74-.08H224l.75-.08-.33.58-.34.58-.33.58-.33.66-.25.67-.33.58-.33.75-.33.66-.34.66-.33.75-.33.75-.33.66-.34.83-.33.75-.33.75-.33.74-.33.83-.33.83-.34.75-.33.83-.33.83-.33.83-.34.83-.33.83-.25.83-.33.91-.33.83-.33.83-.33.92-.34.83-.33.83-.33.91-.25.83-.33.91-.33.83-.92-.16-.83-.09-.83-.16-.83-.09-.83-.08h-.83l-.74-.08h-1.83l-1,.08-.91.17-.83.16-.83.34-.75.33-.58.41-.58.58-.49.58.16.5.75-.58.58-.41.75-.42.74-.25.83-.25.83-.16,1-.09h1.74l.75.09h.75l.83.08.83.08.91.17.83.08.91.17-.33.91-.33.91-.33.83-.34.92-.33.91-.33.83-.33.91-.33.92L210,378l-.33.83-.33.91-.33.83-.33.83-.34.83-.33.83-.33.75-.41.83-.34.83-.33.74-.41.75-.34.75-.33.74-.41.75-.42.67-.33.74-.41.67-.42.66-.33.66-.42.59-.41.58-.42.66-.41.58-.42.5-.5.58-.41.5-.41.5-.5.41-.42.5-.5.41v-.08l-.83.67-.74.49-.67.5-.66.42-.75.25-.66.24-.67.17-.66.08-.75.09h-.83l-1.16-.09-1.08-.33-.91-.5-.83-.5-.75-.66-.58-.75-.33-.66-.25-.75-.08-.66.16-.58.33-.42.59-.33-.09-.58-.58-.17-.74.67-.5.74-.09.92.09.58.08.58.25.66.41.59.42.58.5.58.58.5.66.49.75.42.83.41.83.34,1,.16.92.17h1.08l.66-.09h.58l.67-.16.74-.08.67-.17.74-.25.75-.25.75-.25L199,401l.74-.42.83-.58.75-.58.83-.66.5-.5.5-.42.41-.49.5-.59.41-.49.5-.59.42-.58.41-.58.5-.66.41-.66.42-.67.41-.66.42-.67.41-.74.34-.67.41-.74.42-.75.41-.75.33-.83.42-.75.33-.83.42-.74.33-.83.33-.83.41-.83.34-.83.33-.83.33-.83.42-.92.33-.83.33-.91.33-.83.33-.83.33-.91.25-.83.34-.91.33-.83.33-.92.91.25.92.17.83.16.74.17.83.17.83.16.83.17.83.16.83.09.83.16.83.17.83.16.83.09.75.16.83.09.83.08.75.08.74.09.75.08-.25.75-.25.83-.16.74-.25.75-.17.5-.16.49-.17.67-.25.66-.25.75-.25.75-.25.83-.24.83-.34.91-.25.91-.24.92-.34,1-.25,1-.25.91-.24,1-.25,1-.25,1-.25.91-.17.91-.16.92-.17.91-.17.83-.08.83-.08.75-.09.66v1.25l.09.5.08.41.25.66.42.67.49.58.67.41.75.09.49-.09.5-.24.66-.34.67-.49.75-.59.83-.66.83-.83.58-.58.66-.66.66-.67.67-.66.58-.67.66-.66.67-.75.66-.74.67-.75.66-.75.66-.75.67-.74.66-.75.58-.75.67-.74.58-.75.66-.66.58-.75.58-.75.58-.66.59-.75.58-.66.5-.67.49-.58.5-.66.5-.58.41-.58.2-.24,0,.07-.25.83-.25.83-.33.83-.25.83-.33,1-.25,1L248,386l-.17.92-.25.83-.16.83-.17.74-.08.75-.09.67V392l.09.67.08.58.25.66.41.67.58.41.67.33.83.09.58-.09.58-.16.67-.25.58-.33.66-.34.66-.49.75-.42.67-.58.66-.58.75-.58.66-.67.66-.66.67-.66.74-.75.59-.67.66-.74.66-.67.59-.66.58-.66.49-.67.5-.66.5-.58.42-.5.41-.5h-.08l.41-.5.67.5.66.33.66.34.67.16.75.08h.83l.82-.16.83-.17.84-.25.83-.33.74-.41.83-.42.75-.5.75-.5.74-.58.37-.32-.2.41-.42.83-.25.91-.33.91-.25.83-.16.92-.17.91-.08.83v.83l.08.83.08.91.25.83.25.83.33.67.58.74.67.58.75.42.74.25h.83l.67-.17.74-.25.67-.33.66-.41.67-.58.66-.59V391l.58-.5.5-.5.58-.58.5-.66.5-.59.41-.58.91.5.92.17.83-.09.83-.16.83-.33.83-.5.83-.5.66-.58.66-.5.59-.5.41-.41.25-.25.66-.66.59-.58.58-.67.58-.58.49-.58.59-.67.49-.58.23-.26-.23.51-.25.75-.33.75-.33.74-.25.75-.33.75-.33.74-.33.75-.25.75-.34.75-.33.74-.25.75-.33.66-.25.75.83.75.75.41,1.08.5.66.08.5-.58.5-.66.58-.66.58-.67.58-.66.67-.75.66-.66.66-.75.75-.75.66-.75.75-.74.67-.67.74-.74.75-.75.75-.66.66-.75.75-.66.66-.67.75-.58.66-.66.67-.59.58-.49.66-.5.58-.5.5-.5.5-.33.5-.41.41-.25.42-.33.33-.17.33-.17.25-.08v.5l-.17.58-.16.66-.25.75-.25.83-.33.83-.42.91-.33.92-.42.91-.41.91-.42.92-.41.91-.42.83-.33.83-.33.83-.25.66-.25.58-.33.92-.33,1-.25.92-.33.91-.25.91-.25.91-.17.92-.16.83-.09.74-.08.75.08.67v.66l.17.5.33.83.58.74.75.5.83.17.66-.17.67-.33.66-.5.5-.41.58-.5.5-.5.58-.58.58-.58.58-.67.67-.66.58-.75.58-.66.58-.75.66-.74.58-.75.59-.75.49-.66.5-.75.58-.66.42-.67.5-.58.41-.58.33-.5.42-.58.41-.58.5-.66.42-.67L328,383l.5-.67.5-.74.5-.75.32-.48-.07.56v.67l.08.66.08.5.25.5.42.66.58.33.74.17.5-.09.58-.08.58-.33.67-.33.66-.42.67-.5.74-.49.75-.58.75-.59.66-.66.75-.58.66-.58.58-.58.58-.5v.08l.25-.16.5-.42.66-.66.75-.75.42-.41-.33.91-.42.83-.33.91-.42.91-.33.92-.33.91-.33.91-.25.92-.33.83-.25.83-.25.91-.25.83-.17.75-.16.83-.17.74-.08.67-.09.66-.08.67v.58l.08.58.09.49.08.5.25.67.41.58.59.58.66.41.75.09.41-.09.5-.08.42-.16.58-.17.49-.25.58-.33.59-.33.58-.42.66-.41.58-.5.67-.5.66-.58.66-.58.75-.58.67-.67.66-.58.75-.75.66-.66.75-.75.66-.66.66-.75.75-.74.67-.83.66-.75.66-.75.59-.83.66-.75.14-.18-.06.52-.08.83.08.91.17.83.33.75.41.58.59.41.74.17.5-.08.66-.17.58-.25.75-.41.67-.42.74-.5.75-.58.75-.58.74-.66.75-.58.67-.67.74-.58.58-.58-.33.91-.33.92-.33.91-.33.83-.25.83-.17.83-.25.83-.08.75-.08.74-.09.75v.66l.09.67.08.66.16.58.25.67.5.58.5.58.66.41.75.09.42-.09.41-.08.5-.17.5-.16.49-.33.58-.25.5-.33.58-.42.59-.41.58-.5.58-.5.58-.5.66-.58.58-.58.67-.66.58-.67.66-.66.67-.67.66-.74.58-.67.67-.74.66-.75.66-.83.58-.75.67-.74.15-.21-.4.87-.33.91-.34,1-.33.91-.33.91-.33.92-.33.83-.25.91-.25.83-.25.83-.25.75-.17.83-.16.74-.17.67-.08.74-.08.59-.09.66v1.58l.09.41.33.83.58.75.75.58.91.17.75-.09.66-.16.75-.25.74-.33.58-.34.59-.33.58-.41.58-.42.66-.5.67-.58.66-.58.66-.58.67-.58.66-.58.67-.66.66-.67.75-.75.66-.66.67-.75.66-.66.58-.75.66-.66.67-.75.58-.75.58-.66.58-.66.58-.67.5-.66.58-.67.5-.66.5-.58.41-.66.07-.07-.23.65-.25.91-.25.91-.25.83-.17.92-.16.82-.09.84-.08.83-.08.83v1.82l.16.91.17.92.25.83.41.66.42.58.5.5.66.33.66.17.83.08h.5l.5-.08.58-.17.5-.16.58-.17.58-.25.58-.25.58-.33.58-.33.59-.33.66-.42.58-.41.66-.5.67-.42.58-.58.66-.5.67-.58.66-.58.67-.58.66-.58.66-.66.67-.67.66-.66.67-.67.66-.74.66-.67.67-.74.66-.75.67-.75.66-.74.58-.75.66-.75.67-.75.58-.74-.33-.42v-.08l-.75.25-.66.74-.58.84-.67.74-.66.75-.67.75-.66.74-.66.75-.67.75-.66.74-.67.67-.66.66-.75.67-.66.66-.67.66-.66.59-.66.58-.67.58-.66.58-.67.5-.58.49-.66.42-.66.41-.59.42-.58.33-.58.33-.58.25-.58.25-.58.25-.5.17-.5.16-.49.09h-.5L406,393l-.5-.5-.16-.5-.09-.66v-1.41l.17-.83.17-.83.16-.91.25-.92.25-.91.33-1,.33-1,.34-.92.33-1,.41-.92.33-.91.34-.83.41-.83.33-.75.34-.74.33-.58.25-.58.25-.42,1.07-.33.34-.25.58-.25.66-.25.5-.25.66-.33.75-.41.83-.58.66-.67.67-.66.5-.75.25-.83-.09-.83-.5-.83-.74-.5-.83-.16h-.67l-.66.08-.66.17-.59.16-.66.33-.58.34-.66.41-.59.42-.58.49-.58.58-.5.67-.58.66-.49.67-.5.74-.5.75-.5.75-.41.83-.42.83-.2.43,0,0-.49.58-.5.67-.42.58-.5.66-.49.58-.5.67-.5.58-.5.66-.58.67-.5.66-.49.66-.59.67-.58.66-.49.75-.59.58-.58.66-.58.67-.5.66-.58.58-.58.58-.5.59-.58.58-.49.49-.67.59-.66.66-.67.58-.66.58-.66.5-.75.58-.67.5-.74.41-.67.42-.74.41-.67.34-.74.24-.84.17-.24-.33.08-1,.08-.5.08-.58.17-.49.17-.67.16-.58.25-.66.17-.75.25-.66.25-.75.33-.75.25-.83.33-.75.25-.83.33-.83.33-.83.33-.83.42-.91.33-.83.33-.83.42-.91.33-.83.42-.91.33-.83.41-.84.33-.82.42-.83.33-.83.33-.83.42-.83.33-.75.33-.75.33-.75.34-.74.33-.67.33-.74.25-.67.33-.74.33-.67.34-.75.41-.33.42-.41.49-.42.5-.5.5-.49.5-.5.49-.58.59-.58.49-.67.59-.66.58-.67.58-.66.58-.75.58-.74.58-.75.58-.75.58-.74.5-.84.58-.74.58-.83.5-.75.58-.83.5-.83.5-.75.41-.74.5-.83.41-.75.42-.83.42-.75.41-.83.33-.74.33-.75.34-.75.25-.74.24-.75.25-.91.25-.84.17-.82.16-.83.09-.75.08-.83-.08-.75-.09-.75-.16-.66-.5-.91-.58-.58-.66-.34-.75-.08h-.75l-.66.25-.67.42-.66.49-.58.58-.58.67-.5.66-.58.67-.42.66-.41.66-.42.67-.16.41v-.08l-.42.66-.41.75-.33.67-.42.74-.42.67-.33.74-.41.75-.33.75-.42.74-.33.75-.42.75-.33.74-.33.75-.42.75-.33.75-.33.74-.41.75-.34.75-.33.83-.33.74-.33.75-.33.75-.42.75-.33.74-.33.83-.34.75-.33.75-.33.74-.33.75-.33.75-.42.91-.41.91-.33.67-.25.66-.34.67-.25.58-.33.66-.33.66-.33.67-.33.75L390,369l-.34.83-.33.75-.41.83-.42.91-.33.83-.42.92-.33.91-.41.91-.25.55-.42.53-.58.75-.58.74-.58.75L384,380l-.58.74-.67.67-.58.75-.66.74-.58.67-.67.66-.66.66-.58.67-.67.66-.58.58-.58.59-.66.58-.58.49-.58.5-.59.5-.49.42-.59.41-.49.33-.5.33-.5.25-.5.25-.74.17-.25-.33.08-.92.08-.49.17-.59.17-.66.16-.66.25-.75.25-.75.25-.83.33-.83.33-.91.33-.91.34-1,.41-1,.42-1,.25-.67.33-.66.25-.66.41-.92.33-.83.34-.83.33-.74-.75-.58-.58-.34-1-.49-.66-.09-.5.33-.5.83-.33.67-.33.75-.33.66-.58,1.08-.5.5-.58.41-.5.5-.58.5-.67.58-.74.58-.75.66-.75.58-.74.59-.67.49-.74.5-.67.5-.58.33-.58.25h-.58l.08-.66.25-.58.33-.67.33-.75.42-.83.5-.91.58-.83.5-.83.66-.83.58-.83.58-.75.67-.58.58-.58.58-.41.58-.25.58-.08.75.33.58.58.75.83v-.91l-.5-.67-.58-.58-.75-.5-.83-.33-.83-.25-.75-.08-.75.08-.82.17-.75.25-.67.33-.74.5-.67.49-.66.59-.58.66-.5.75-.5.74-.29.54,0,0-.66.92-.75.83-.58.66-.33.42-.58.74-.59.75-.66.75-.58.74-.66.75-.67.66-.66.75-.67.67-.66.66-.66.66-.67.67-.66.66-.67.58-.66.58-.66.5-.67.5-.66.5-.58.5-.58.41-.67.33-.5.34-.58.33-.49.25-.5.16-.75.17-.25-.33.17-.92.08-.58.17-.66.16-.67.25-.74.17-.67.25-.74.25-.75.24-.83.25-.75.34-.83.33-.83.25-.83.33-.83.33-.83.33-.83.42-.83.33-.83.33-.83.33-.83.42-.83.33-.83.33-.83.42-.74.33-.83.33-.75.33-.75.33-.66.34-.75.33-.66.33-.67.33-.74.33-.67.42-.33.41-.42.5-.49.5-.42.5-.5.5-.58.49-.58.59-.58.49-.58.58-.66.59-.67.58-.66.58-.75.5-.66.58-.75.58-.83.58-.75.58-.74.58-.83.58-.75.5-.83.58-.83.5-.83.42-.75.49-.75.42-.66.41-.75.42-.74.33-.67.41-.74.34-.75.24-.67.34-.74.25-.67.24-.74.25-.67.25-.91.17-.83.25-.83.08-.75.08-.83.09-.74-.09-.75-.08-.67-.17-.74-.49-.92-.67-.66-.66-.33-.66-.17-.75.09-.75.24-.66.42-.67.58-.58.58-.58.67-.58.66-.5.75-.5.74-.41.75-.42.75-.41.66-.42.75-.41.66-.33.75-.42.75-.41.66-.33.75-.42.74-.42.75-.33.75-.41.75-.33.83-.42.74-.33.75-.42.75-.33.83-.33.74-.42.75-.33.75-.33.83-.33.74-.42.75-.33.83-.33.75-.33.75-.33.74-.34.75-.25.75-.33.74-.41.83-.33.75-.34.75-.33.74-.41.83-.34.75-.33.75-.41.83-.33.74-.42.84-.33.74-.33.75-.42.83-.33.75-.41.33-.75.66-.83.75-.92.75-.66.58-.5.41v.17l-.58.5-.58.49-.66.59-.67.58-.66.58-.75.58-.75.5-.66.58-.75.41-.66.42-.58.33-.58.25h-.58l.16-.67.17-.41.25-.5.25-.58.33-.66.41-.75.5-.75.5-.83.5-.83.58-.91.58-.91.58-.92.67-.83.58-.91.66-.83.58-.75.66-.74.59-.67.58-.66.58-.5.5-.41.41-.34.42-.16.41-.09.75.34.5.58.16.41.75.42v-.67l-.33-.74-.58-.67-.75-.5-.83-.33-.91-.25-.83-.08h-.58l-.59.17-.66.16-.66.33-.59.42-.66.5-.66.58-.67.58-.66.66-.67.75-.58.75-.58.83-.58.74-.58.92-.5.83-.5.83-.41.91-.42.83-.1.25-.39.66-.5.67-.5.74-.5.75-.49.75-.5.75-.5.74-.5.75-.41.66-.42.58-.25.34-.25.33-.33.5-.41.49-.5.67-.42.66-.58.67-.58.74-.58.75-.66.83-.58.83-.67.75-.66.83-.67.83-.66.74-.58.75-.66.66-.59.67-.58.58-.58.58-.5.42-.41.41h.08l-.41.17-.83.41-.25-.33.08-1.08.08-.5.09-.49.25-.67.16-.66.25-.75.33-.83.33-.83.25-.83.42-.91.33-.83.33-.92.34-.83.24-.49.25-.67.34-.74.33-.75.33-.75.25-.83.33-.75.33-.83.25-.91.33-.83.25-.83.25-.83.17-.83.16-.83.09-.83.16-.75v-.74l-.16-.92-.34-.74-.49-.5-.59-.33-.83-.17-.24.08-.25.09-.42.16-.33.25-.5.25-.5.33-.49.34-.5.49-.67.42-.58.5-.66.58-.67.5-.66.66-.75.58-.66.66-.75.67-.74.66-.75.75-.75.75-.74.66-.75.75-.75.74-.75.75-.74.75-.67.75-.66.74-.67.67-.66.74.33-.83.33-.83.34-.74.33-.83.33-.75.33-.83.34-.75.24-.74.34-.75.25-.75.33-.66.25-.75.24-.66.34-.75.25-.66.25-.59.24-.66.34-.66.25-.67.16-.66.17-.67-.25-.33-.83-.41-.92-.5-.74-.25h-.58l-.33.5-.42.91-.41,1-.34.83-.33.74-.25.75-.33.75-.07.15-.18.18-.5.66-.58.67-.58.66-.5.67-.58.66-.58.66-.58.59-.5.66-.58.58-.58.58-.5.5-.33.33-.5.5-.66.58-.75.58-.75.58-.91.42-.83.33-.83.08-.83-.16-.66-.75.5-.75.49-.75.42-.74.33-.75.33-.66.34-.75.24-.75.25-.74.17-.75.16-.75.17-.5.17-.91.08-.91-.17-1-.49-.74-.92-.34h-.74l-.67.25-.58.33-.58.42-.5.58-.5.75-.41.74-.33.83-.33.83-.17.92-.08,1-.09.92V383l.17.91.17.83.33.75.33.66.41.66-.58.83-.49.83-.59.67-.58.66-.58.58-.58.5-.66.5-.75.41-.66.25-.67.17-1-.17-.75-.74-.08-.5v-.58l.08-.67.08-.83.25-.83.17-.91.25-1,.33-1,.33-1.08.33-1,.42-1.08.41-1.08.42-1,.41-1,.5-1,.5-.83.5-.83.41-.75.5-.66.5-.5.5-.42.41-.33.42-.16H286l.42.16v-.08l.74.83h-.08l.58.58v-.83h.08l-.41-.58-.67-.58-.58-.25-.66-.17-.58-.08-.67.08-.58.09-.66.24-.58.34-.58.33-.67.5-.58.49-.58.59-.58.66-.5.66-.36.46-.13.12-.42.5-.5.58-.58.58-.58.59-.75.58-.66.49-.75.58-.75.42-.82.5-.83.33-.75.33-.83.17-.83.16h-.75l-.75-.16-.66-.25-.66-.42-.67-.58.25-.41.5-.75.41-.83.5-.75.42-.83.5-.74.49-.92.42-.91.33-.91.25-.83.16-.83.09-.75-.17-.58-.5-.58-.74-.33-.83-.09-.75.17-.75.25-.66.41-.58.59-.58.66-.42.75-.41.83-.25.91-.17.75-.08.83-.08.83.08.91.08.83.25.91.33.83.42.75-.58.66-.5.67-.58.66-.5.58-.58.67-.5.66-.66.66-.58.75-.59.67-.66.66-.66.75-.67.66-.66.66-.67.59-.66.66-.66.58-.75.5-.66.5-.67.41-.58.33-.66.34-.67.24-.58.17-.08-.33v-.5l.08-.5.08-.66.17-.75.17-.83.25-.83.33-1,.33-1,.33-1,.33-1.08.42-1.08.33-.82.25-.83.33-.83.33-.83.25-.75.34-.83.33-.83.25-.75.33-.83.33-.75.25-.74.25-.75.33-.66.25-.67-.67-.58-.58-.33-1.07-.58-.67-.33-.5.08-.41.5-.42.91h.09l-.25.42-.33.83-.34.83-.33.83v0l-.24.3-.33.41-.33.5-.42.5-.41.5-.42.58-.5.58-.49.58-.5.66-.5.58-.5.67-.58.66-.5.67-.58.74-.58.67-.58.74-.66.67-.58.75-.58.66-.59.75-.66.74-.58.67-.58.74-.67.67-.58.66-.58.67-.58.66-.58.66-.58.67-.58.58-.58.58-.5.58-.58.5-.5.5-.75.74-.74.67-.67.58-.58.41-.66.34-.83.25-.25-.34.17-.83.16-.83.17-.74.16-.83.17-.83.25-.83.16-.83.25-.83.17-.83.25-.83.25-.83.25-.83.24-.83.25-.83.25-.75.25-.83.25-.83.33-.83.25-.75.25-.83.25-.74.25-.83.33-.83.25-.84.25-.91.33-.83.25-.83.25-.75.16-.82.25-.75L236,375l.25-.83.25-.75h.75l.74-.08.83-.08.83-.09.67-.16.25-.5-.08-.08-.75.08H239l-.75.08h-1.49l.25-.83.17-.83.24-.91.17-.83.25-.83.16-.83.17-.83.17-.83.08-.75.17-.83.08-.75.08-.83V362l.08-.75v-1.66l-.08-.91-.08-.92-.17-.83-.16-.74-.25-.75-.33-.75-.34-.74-.33-.67-.41-.74-.42-.67-.5-.66-.49-.67-.59-.66-.49-.66-.58-.67-.67-.58-.58-.66-.66-.58-.67-.59-.66-.58v.09l-.33-.34-.67-.58-.83-.74-.74-.67-.59-.41.34-.67.16-.41.83-.08.92-.09.83-.16.91-.09.83-.08.83-.17.83-.08.83-.16.75-.17.83-.17.74-.08.75-.25.75-.17.66-.16,1-.33,1-.33.92-.42.74-.41.75-.5.66-.5.59-.58.49-.58.33-.58.25-.67.17-.66v-.75l-.08-.75-.25-.74-.42-.58-.58-.67-.58-.58-.58-.33-.66-.25-.67-.17-.75-.08-.82-.08Z" transform="translate(-184.2 -329.35)"/></svg>