<svg id="Layer_1" data-name="Layer 1" xmlns="http://www.w3.org/2000/svg" viewBox="0 0 258.77 94.54"><defs><style>.cls-1{fill:#58595b;}</style></defs><path class="cls-1" d="M42.56,49.47C13.39,49.47,0,38.74,0,27.29,0,14.11,17.57,0,49,0,74.6,0,92.89,9.36,103.26,16.63c6.12-5,12.38-9.36,18-12.09,1.94-1,7.27-3.24,10.51-3.24,1.51,0,2.52.5,2.52,1.87,0,6.26-22,27.43-52.56,38.88C74.45,52.85,67.61,63.29,49.25,68a42.72,42.72,0,0,0,13.68,2.59,29.54,29.54,0,0,0,16.71-5.32l11.88-7.85.29.57L79.93,65.89a29.69,29.69,0,0,1-16.85,5.18,50,50,0,0,1-15.2-2.81A102,102,0,0,1,25,70.56c-11.6,0-17.07-2.87-17.07-5.68,0-2.52,4.39-4.9,12.6-4.9,7.35,0,14.26,2.59,21.1,5.18,12-4.24,22.47-11.88,32-20.44A107.59,107.59,0,0,1,42.56,49.47Zm60.05-32.26A85.19,85.19,0,0,0,54,2.3C20.81,2.3,3.89,15.77,3.89,28.15c0,10.59,12.46,20.45,37.73,20.45A113.84,113.84,0,0,0,75,43.42c5.11-4.68,9.87-9.51,14.55-14.26A170.91,170.91,0,0,1,102.61,17.21ZM9,65.09c0,1.88,3.6,3.75,11.67,3.75a61.47,61.47,0,0,0,19.51-3.17C33.48,63.29,26.79,61,20.23,61,13.1,61,9,63.08,9,65.09Zm83.1-36.5a86.6,86.6,0,0,0-9.51,12.24,136.5,136.5,0,0,0,29.67-15.7,59.1,59.1,0,0,0-8.86-7.34C97.86,22.61,93.54,27.07,92.1,28.59ZM133.43,3.46c0-.94-.79-1.3-2-1.3-3,0-8.57,2.38-10,3a87,87,0,0,0-17.42,12,71.24,71.24,0,0,1,8.86,7.49C125.72,15.62,133.43,6.7,133.43,3.46Z"/><path class="cls-1" d="M108.65,57.39l.29.57c-5,3.24-9.36,6.34-13,8.64-1.73,1.09-5.26,3-7.78,3a2.42,2.42,0,0,1-2.67-2.74c0-1.73,1.88-5.83,15.49-19.66,3.24,0,6.55-.36,6.55-.36l.21.43C103.11,50.62,88,64.81,88,67.32a1.22,1.22,0,0,0,1.37,1.37c1.66,0,4.54-1.58,6.34-2.73C99.07,63.8,103.61,60.7,108.65,57.39Zm-.36-15.91c0-1.73,2.59-4.83,5.4-4.83,1.08,0,1.51.5,1.51,1.15,0,1.73-3,4.83-5.61,4.83C108.65,42.63,108.29,42.12,108.29,41.48Z"/><path class="cls-1" d="M106.27,68.26c1.51,0,4-.65,7.13-2.52,1.59-.93,3.39-2.23,5.4-3.53l7.56-5,.29.58-7.42,5c-2,1.36-3.88,2.59-5.61,3.67-3.1,1.87-5.47,2.59-7.2,2.59-2.24,0-3.39-1.22-3.39-2.74,0-7,15.7-18.21,23.76-26.93,7.21-7.7,20.31-20.16,25.5-20.16a1.39,1.39,0,0,1,1.58,1.52c0,4.75-12.39,19.58-34.13,30.38-10,11.38-15.34,14-15.34,16.27C104.4,67.83,105.05,68.26,106.27,68.26Zm45.51-48.1c-3.17,0-12.1,7.27-19.95,15.48-4,5.69-7.7,10.23-10.87,14,22.76-12.46,31.61-25,31.61-28.51C152.57,20.45,152.29,20.16,151.78,20.16Z"/><path class="cls-1" d="M123.7,68.26c1.51,0,4-.65,7.13-2.52,1.58-.93,3.38-2.23,5.4-3.53l7.56-5,.28.58-7.41,5c-2,1.36-3.89,2.59-5.62,3.67-3.1,1.87-5.47,2.59-7.2,2.59-2.23,0-3.38-1.22-3.38-2.74,0-7,15.69-18.21,23.76-26.93,7.2-7.7,20.3-20.16,25.49-20.16a1.39,1.39,0,0,1,1.58,1.52c0,4.75-12.38,19.58-34.13,30.38-10,11.38-15.34,14-15.34,16.27C121.82,67.83,122.47,68.26,123.7,68.26Zm45.5-48.1c-3.16,0-12.09,7.27-19.94,15.48-4,5.69-7.71,10.23-10.87,14C161.14,37.15,170,24.63,170,21.1,170,20.45,169.71,20.16,169.2,20.16Z"/><path class="cls-1" d="M160.56,57.39l.29.57c-5,3.24-9.36,6.34-13,8.64-1.73,1.09-5.26,3-7.78,3a2.41,2.41,0,0,1-2.66-2.74c0-1.73,1.87-5.83,15.48-19.66,3.24,0,6.55-.36,6.55-.36l.21.43C155,50.62,139.9,64.81,139.9,67.32a1.21,1.21,0,0,0,1.36,1.37c1.66,0,4.54-1.58,6.34-2.73C151,63.8,155.52,60.7,160.56,57.39Zm-.36-15.91c0-1.73,2.59-4.83,5.4-4.83,1.08,0,1.51.5,1.51,1.15,0,1.73-3,4.83-5.61,4.83C160.56,42.63,160.2,42.12,160.2,41.48Z"/><path class="cls-1" d="M191.52,49.47c-3.24,3.17-8.35,8.35-13,13-2.45,2.45-3.6,4.17-3.6,5.11,0,.43.22.65.79.65.94,0,2.74-.65,5.26-2.23,3.38-2.16,7.92-5.26,13-8.57l.29.57c-5,3.24-9.36,6.34-13,8.64A13.62,13.62,0,0,1,174.46,69c-1.73,0-2.81-.72-2.81-2.16s1-3.38,3.31-5.9l2.09-2.16c-6.19,4.53-15.27,10.58-19.73,10.58-1.51,0-2.23-.94-2.23-2.52,0-10.08,17.71-21.67,32.83-21.67a22.29,22.29,0,0,1,11.16,2.73l-.36.44a20.08,20.08,0,0,0-8.35-1.73c-16.27,0-33,17.14-33,21.31,0,.43.22.65.72.65,4.18,0,15.56-8.07,21.68-12.6,2.16-2.23,4.39-4.39,6.55-6.55a27.07,27.07,0,0,0,5-.36Z"/><path class="cls-1" d="M255.6,70.06c0-6-3.38-10.8-9.93-10.8-3.24,0-7.2,1.15-11.88,3.89l-.58-.65c5.11-3,9.58-4.18,13.25-4.18,7.92,0,12.31,5.84,12.31,12.82,0,10.44-9.72,23.4-31.82,23.4-13.9,0-22.18-7.34-22.18-17,0-4.46,1.73-9.36,5.54-14.33,5.69-7.42,15-12.67,15-14.76,0-.14-.14-.22-.36-.22-3.53,0-15.55,8.36-22.9,13.68q-2.91,3.14-6.91,7.13c-3.24,0-6.55.36-6.55.36l-.22-.43c4.61-3.38,21.46-17.64,21.46-20.74,0-.21-.14-.36-.43-.36-.94,0-8.14,5.19-12,7.78l-4,2.74-.5-.44,4.39-3c6-4.1,11.88-8.42,14.33-8.42A1.27,1.27,0,0,1,213,48c0,1.58-2.23,4.68-8.72,11.59,7.28-5.18,17.65-12.17,21.1-12.17,1.08,0,1.8.43,1.8,1.66,0,5.61-8.85,11.3-14.76,17-4.61,4.39-6.55,8.71-6.55,12.6,0,8.5,9.43,14.84,20.3,14.84C246.17,93.54,255.6,80.14,255.6,70.06Z"/></svg>