<?xml version="1.0" encoding="UTF-8"?>
<svg width="419px" height="63px" viewBox="0 0 419 63" version="1.1" xmlns="http://www.w3.org/2000/svg" xmlns:xlink="http://www.w3.org/1999/xlink">
    <!-- Generator: Sketch 64 (93537) - https://sketch.com -->
    <title>masiero-logo-color</title>
    <desc>Created with Sketch.</desc>
    <g id="Page-1" stroke="none" stroke-width="1" fill="none" fill-rule="evenodd">
        <path d="M387.3159,0.5839 C370.3099,0.5839 356.5229,14.3699 356.5229,31.3769 C356.5229,48.3809 370.3099,62.1679 387.3159,62.1679 C404.3219,62.1679 418.1069,48.3809 418.1069,31.3769 C418.1069,14.3699 404.3219,0.5839 387.3159,0.5839 L387.3159,0.5839 Z M387.3159,52.2809 C375.7709,52.2809 366.4099,42.9219 366.4099,31.3769 C366.4099,19.8299 375.7709,10.4709 387.3159,10.4709 C398.8629,10.4709 408.2219,19.8299 408.2219,31.3769 C408.2219,42.9219 398.8629,52.2809 387.3159,52.2809 L387.3159,52.2809 Z M44.3559,1.5199 L27.0079,31.0859 L9.9269,1.5199 L9.9029,1.5199 L9.7809,1.5199 L-0.0001,1.5199 L-0.0001,61.2939 L9.9029,61.2939 L9.9029,20.0379 L23.2939,43.7249 L30.7239,43.7249 L44.3559,19.7959 L44.3559,61.2939 L54.4649,61.2939 L54.4649,1.5199 L44.3559,1.5199 Z M116.0329,53.0679 L97.1909,53.0679 L98.6859,43.8089 L112.2599,43.8089 L100.1979,14.1979 L81.0699,61.3569 L69.1519,61.3569 L95.1849,1.5189 L105.8019,1.5189 L131.5809,61.3569 L119.4089,61.3569 L116.0329,53.0679 Z M204.7099,61.2939 L215.3539,61.2939 L215.3539,1.5199 L204.7099,1.5199 L204.7099,61.2939 Z M238.7259,1.5199 L278.3239,1.5199 L278.3239,11.1429 L249.3629,11.1429 L249.3629,25.8349 L276.8039,25.8349 L276.8039,35.4589 L249.3629,35.4589 L249.3629,51.6699 L279.8449,51.6699 L279.8449,61.2939 L238.7259,61.2939 L238.7259,1.5199 Z M154.8359,17.3069 C154.8359,29.2959 184.3289,22.4559 184.3289,43.7339 C184.3289,56.5669 174.1969,62.8139 162.4609,62.8139 C155.0319,62.8139 147.7719,60.5329 142.8739,54.7089 L150.8939,46.9409 C153.5119,50.9099 157.9859,53.1879 162.7149,53.1879 C167.6109,53.1879 173.1839,50.4879 173.1839,44.9979 C173.1839,31.9139 143.6919,39.4279 143.6919,18.0669 C143.6919,5.7419 154.6679,-0.0001 165.7289,-0.0001 C171.9759,-0.0001 178.2229,1.7719 182.8679,6.1639 L175.0999,14.3509 C172.8199,11.1429 168.7669,9.6249 164.6299,9.6249 C159.7339,9.6249 154.8359,11.8189 154.8359,17.3069 L154.8359,17.3069 Z M318.0859,26.8489 L309.7439,26.8489 L309.7439,10.6379 L319.0129,10.6379 C324.5029,10.6379 331.0869,11.4809 331.0869,18.5729 C331.0869,26.3399 324.0819,26.8489 318.0859,26.8489 L318.0859,26.8489 Z M344.2569,61.2939 L328.3839,34.8669 C337.2519,33.6019 342.2319,27.2699 342.2319,18.6559 C342.2319,5.2329 331.4249,1.5199 319.9449,1.5199 L309.7439,1.5199 L307.4229,1.5199 L299.1749,1.5199 L299.1749,61.2939 L309.7439,61.2939 L309.7439,35.9669 L317.5779,35.9669 L331.4249,61.2939 L344.2569,61.2939 Z" id="masiero-logo-color" fill="#800F3C"></path>
    </g>
</svg>