<svg width="20" height="21" viewBox="0 0 20 21" fill="none" xmlns="http://www.w3.org/2000/svg">
<path fill-rule="evenodd" clip-rule="evenodd" d="M7.28261 10.8535C6.51146 10.8535 5.7719 11.1599 5.22662 11.7051C4.68134 12.2504 4.375 12.99 4.375 13.7611V16.5872C4.375 16.7962 4.45803 16.9967 4.60581 17.1444C4.7536 17.2922 4.95404 17.3753 5.16304 17.3753H14.7011C14.9101 17.3753 15.1105 17.2922 15.2583 17.1444C15.4061 16.9967 15.4891 16.7962 15.4891 16.5872V13.7611C15.4891 12.99 15.1828 12.2504 14.6375 11.7051C14.0922 11.1599 13.3527 10.8535 12.5815 10.8535H7.28261ZM4.34274 10.8213C5.12244 10.0415 6.17994 9.60352 7.28261 9.60352H12.5815C13.6842 9.60352 14.7417 10.0415 15.5214 10.8213C16.3011 11.601 16.7391 12.6585 16.7391 13.7611V16.5872C16.7391 17.1277 16.5244 17.6461 16.1422 18.0283C15.76 18.4105 15.2416 18.6253 14.7011 18.6253H5.16304C4.62252 18.6253 4.10414 18.4105 3.72193 18.0283C3.33972 17.6461 3.125 17.1277 3.125 16.5872V13.7611C3.125 12.6585 3.56303 11.601 4.34274 10.8213Z" fill="white"/>
<path fill-rule="evenodd" clip-rule="evenodd" d="M6.81539 2.34274C7.59509 1.56303 8.6526 1.125 9.75527 1.125C10.8579 1.125 11.9154 1.56303 12.6951 2.34274C13.4748 3.12244 13.9129 4.17994 13.9129 5.28261C13.9129 6.38528 13.4748 7.44278 12.6951 8.22248C11.9154 9.00219 10.8579 9.44022 9.75527 9.44022C8.6526 9.44022 7.59509 9.00219 6.81539 8.22248C6.03569 7.44278 5.59766 6.38528 5.59766 5.28261C5.59766 4.17994 6.03569 3.12244 6.81539 2.34274ZM9.75527 2.375C8.98412 2.375 8.24456 2.68134 7.69928 3.22662C7.15399 3.7719 6.84766 4.51146 6.84766 5.28261C6.84766 6.05375 7.15399 6.79332 7.69928 7.3386C8.24456 7.88388 8.98412 8.19022 9.75527 8.19022C10.5264 8.19022 11.266 7.88388 11.8113 7.3386C12.3565 6.79332 12.6629 6.05375 12.6629 5.28261C12.6629 4.51146 12.3565 3.7719 11.8113 3.22662C11.266 2.68134 10.5264 2.375 9.75527 2.375Z" fill="white"/>
</svg>
