<?xml version="1.0" encoding="utf-8"?>
<!-- Generator: Adobe Illustrator 24.1.0, SVG Export Plug-In . SVG Version: 6.00 Build 0)  -->
<svg version="1.1" id="Livello_1" xmlns="http://www.w3.org/2000/svg" xmlns:xlink="http://www.w3.org/1999/xlink" x="0px" y="0px"
	 viewBox="0 0 26 22.5" style="enable-background:new 0 0 26 22.5;" xml:space="preserve">
<rect x="12.8" y="3.8" width="13.2" height="1"/>
<rect y="3.8" width="5.2" height="1"/>
<rect x="22.8" y="10.8" width="3.2" height="1"/>
<rect y="10.8" width="15.1" height="1"/>
<rect x="12.8" y="17.8" width="13.2" height="1"/>
<rect y="17.8" width="5.2" height="1"/>
<g>
	<path d="M9,8.3c-2.2,0-4-1.8-4-4s1.8-4,4-4s4,1.8,4,4S11.2,8.3,9,8.3z M9,1.2c-1.7,0-3.1,1.4-3.1,3.1S7.3,7.3,9,7.3
		s3.1-1.4,3.1-3.1S10.7,1.2,9,1.2z"/>
</g>
<g>
	<path d="M9,22.3c-2.2,0-4-1.8-4-4s1.8-4,4-4s4,1.8,4,4S11.2,22.3,9,22.3z M9,15.2c-1.7,0-3.1,1.4-3.1,3.1s1.4,3.1,3.1,3.1
		s3.1-1.4,3.1-3.1S10.7,15.2,9,15.2z"/>
</g>
<g>
	<path d="M19,15.3c-2.2,0-4-1.8-4-4c0-2.2,1.8-4,4-4s4,1.8,4,4C23,13.5,21.2,15.3,19,15.3z M19,8.2c-1.7,0-3.1,1.4-3.1,3.1
		c0,1.7,1.4,3.1,3.1,3.1s3.1-1.4,3.1-3.1C22.1,9.6,20.7,8.2,19,8.2z"/>
</g>
</svg>
