<svg width="20" height="21" viewBox="0 0 20 21" fill="none" xmlns="http://www.w3.org/2000/svg">
<path fill-rule="evenodd" clip-rule="evenodd" d="M9.06326 3C5.43847 3 2.5 5.93847 2.5 9.56326C2.5 13.1881 5.43847 16.1265 9.06326 16.1265C10.6181 16.1265 12.0467 15.5858 13.1713 14.6822L16.2114 17.7223L17.2223 16.7114L14.1822 13.6713C15.0858 12.5468 15.6265 11.1182 15.6265 9.56326C15.6265 5.93847 12.6881 3 9.06326 3ZM3.92962 9.56326C3.92962 6.72803 6.22803 4.42962 9.06326 4.42962C11.8985 4.42962 14.1969 6.72803 14.1969 9.56326C14.1969 12.3985 11.8985 14.6969 9.06326 14.6969C6.22803 14.6969 3.92962 12.3985 3.92962 9.56326Z" fill="white"/>
</svg>
