<svg width="20" height="21" viewBox="0 0 20 21" fill="none" xmlns="http://www.w3.org/2000/svg">
<path fill-rule="evenodd" clip-rule="evenodd" d="M11.3115 2.82786C8.4779 2.22853 5.65289 3.58147 4.2111 6.25742L4.20969 6.26007C2.8346 8.87194 3.34207 12.0766 5.36565 14.1632L9.03923 17.951L9.03833 17.9519L9.06921 17.9731C9.29123 18.1257 9.63238 18.3126 10.0051 18.3126C10.3316 18.3126 10.7024 18.2279 10.9882 17.9332L14.6445 14.1632C16.016 12.749 16.7415 10.8096 16.5247 8.79235C16.2355 5.81771 14.1404 3.42619 11.3115 2.82786ZM5.45307 6.83483C6.36675 5.08522 8.12461 4.01515 10.0051 4.01515L10.8752 4.12138L10.8754 4.12141C10.9317 4.13132 10.9901 4.14157 11.0507 4.152C13.3231 4.62295 15.0166 6.56746 15.2123 8.92117L15.2137 8.93287C15.4083 10.5383 14.8259 12.0826 13.7129 13.2301L10.0567 17.0001C10.0497 17.0073 10.0447 17.01 10.0424 17.011C10.0406 17.0118 10.0396 17.0119 10.0395 17.0119C10.0395 17.0119 10.0395 17.0119 10.0396 17.0119C10.0406 17.0119 10.0396 17.0121 10.0369 17.0109C10.0343 17.0097 10.0289 17.0066 10.0222 16.9998L6.36781 13.1607L6.3662 13.159C4.7341 11.4761 4.34428 8.91965 5.45209 6.83671L5.45307 6.83483ZM10.0051 6.30655C8.3058 6.30655 6.93314 7.73597 6.93314 9.46432C6.93314 11.1927 8.3058 12.6221 10.0051 12.6221C11.7043 12.6221 13.077 11.1927 13.077 9.46432C13.077 7.73597 11.7043 6.30655 10.0051 6.30655ZM8.248 9.46432C8.248 8.41865 9.01379 7.64286 10.0051 7.64286C10.9964 7.64286 11.7621 8.41865 11.7621 9.46432C11.7621 10.51 10.9964 11.2858 10.0051 11.2858C9.01379 11.2858 8.248 10.51 8.248 9.46432Z" fill="white"/>
</svg>
