<?xml version="1.0" encoding="UTF-8"?><svg id="Layer_2" xmlns="http://www.w3.org/2000/svg" xmlns:xlink="http://www.w3.org/1999/xlink" viewBox="0 0 899.37 324.47"><defs><style>.cls-1{fill:url(#linear-gradient-2);}.cls-2{fill:url(#linear-gradient-6);}.cls-3{fill:url(#linear-gradient-11);}.cls-4{fill:url(#linear-gradient-10);}.cls-5{font-family:Poppins-Regular, Poppins;font-size:81.92px;}.cls-6{fill:url(#linear-gradient-5);}.cls-7{fill:url(#linear-gradient-7);}.cls-8{fill:url(#linear-gradient-9);}.cls-9{fill:url(#linear-gradient-3);}.cls-10{fill:url(#linear-gradient);}.cls-11{fill:url(#linear-gradient-4);}.cls-12{fill:url(#linear-gradient-8);}.cls-13{fill:url(#linear-gradient-12);}</style><linearGradient id="linear-gradient" x1="-20" y1="85.88" x2="191" y2="347.36" gradientUnits="userSpaceOnUse"><stop offset="0" stop-color="#023c6c"/><stop offset="1" stop-color="#42bc56"/></linearGradient><linearGradient id="linear-gradient-2" x1="-59.27" y1="117.57" x2="151.74" y2="379.05" xlink:href="#linear-gradient"/><linearGradient id="linear-gradient-3" x1="-76.51" y1="131.49" x2="134.49" y2="392.97" xlink:href="#linear-gradient"/><linearGradient id="linear-gradient-4" x1="-76.97" y1="131.86" x2="134.03" y2="393.34" xlink:href="#linear-gradient"/><linearGradient id="linear-gradient-5" x1="37.67" y1="39.34" x2="248.68" y2="300.82" xlink:href="#linear-gradient"/><linearGradient id="linear-gradient-6" x1="-15.98" y1="82.63" x2="195.03" y2="344.11" xlink:href="#linear-gradient"/><linearGradient id="linear-gradient-7" x1="90.42" y1="-3.22" x2="301.42" y2="258.26" xlink:href="#linear-gradient"/><linearGradient id="linear-gradient-8" x1="1.89" y1="68.21" x2="212.9" y2="329.69" xlink:href="#linear-gradient"/><linearGradient id="linear-gradient-9" x1="116.28" y1="-24.09" x2="327.28" y2="237.39" xlink:href="#linear-gradient"/><linearGradient id="linear-gradient-10" x1="63.95" y1="18.14" x2="274.95" y2="279.62" xlink:href="#linear-gradient"/><linearGradient id="linear-gradient-11" x1="159.77" y1="-59.18" x2="370.77" y2="202.3" xlink:href="#linear-gradient"/><linearGradient id="linear-gradient-12" x1="122.41" y1="-29.04" x2="333.41" y2="232.44" xlink:href="#linear-gradient"/></defs><g id="Layer_1-2"><g><g><path class="cls-10" d="M20.69,73.3c-11.43,0-20.69,9.26-20.69,20.68v91.94l41.37-27.21V93.98c0-5.71-2.32-10.88-6.06-14.62-3.74-3.74-8.91-6.06-14.62-6.06Z"/><path class="cls-1" d="M20.69,241.74c11.42,0,20.68-9.26,20.68-20.68v-16.11c-12.99,8.61-25.98,17.2-38.96,25.8,3.48,6.54,10.36,10.99,18.28,10.99Z"/><path class="cls-9" d="M.53,227.38c-.13-.42-.26-.86-.38-1.32,.11,.45,.23,.88,.38,1.32Z"/><path class="cls-11" d="M1.24,229.29c-.25-.58-.49-1.21-.72-1.91,.2,.65,.44,1.29,.72,1.91Z"/><path class="cls-6" d="M86.42,43.72c-11.43,0-20.69,9.26-20.69,20.68v77.99l41.37-27.21v-50.78c0-5.71-2.32-10.89-6.06-14.63-3.74-3.74-8.91-6.06-14.62-6.06Z"/><path class="cls-2" d="M65.73,250.64c0,11.42,9.26,20.68,20.69,20.68s20.68-9.26,20.68-20.68v-89.53c-13.79,9.13-27.58,18.27-41.37,27.4v62.13Z"/><path class="cls-7" d="M152.15,0c-11.43,0-20.68,9.26-20.68,20.68v112.5l41.37,29.99V20.68c0-5.72-2.31-10.88-6.06-14.63-3.75-3.74-8.91-6.06-14.63-6.06Z"/><path class="cls-12" d="M131.47,294.36c0,11.42,9.26,20.68,20.68,20.68s20.68-9.26,20.68-20.68v-87.19l-41.37-28.78v115.97Z"/><path class="cls-8" d="M217.88,43.72c-11.42,0-20.68,9.26-20.68,20.68v82.15c13.79-9.23,27.58-18.47,41.37-27.7v-54.45c0-5.71-2.31-10.89-6.06-14.63-3.74-3.74-8.91-6.06-14.63-6.06Z"/><path class="cls-4" d="M197.2,250.64c0,11.42,9.26,20.68,20.68,20.68s20.69-9.26,20.69-20.68v-90.77c-13.79,9.85-27.58,19.71-41.37,29.56v61.21Z"/><path class="cls-3" d="M283.61,72.75c-11.42,0-20.68,9.26-20.68,20.69v8.8c11.73-7.85,23.46-15.7,35.19-23.56-3.73-3.67-8.85-5.93-14.5-5.93Z"/><path class="cls-13" d="M262.93,142.13v79.48c0,11.43,9.26,20.68,20.68,20.68s20.69-9.26,20.69-20.68V112.56c-13.79,9.85-27.58,19.71-41.37,29.57Z"/></g><text class="cls-5" transform="translate(369.43 86.12)"><tspan x="0" y="0">Vergi </tspan><tspan x="0" y="95.74">Mühasibatlıq</tspan><tspan x="0" y="191.48">Zirvəsi</tspan></text></g></g></svg>